<svg xmlns="http://www.w3.org/2000/svg" width="70" height="70" viewBox="0 0 70 70">
  <g fill="none" transform="translate(19 21)">
    <rect width="29.229" height="20.533" x="1.886" y="5.6" fill="#FFF"/>
    <polygon fill="#CCC" points=".943 3.733 31.114 3.733 27.343 15.867 5.657 15.867"/>
    <rect width="7.543" height="1.867" x="13.2" y="14.933" fill="#FF7100"/>
    <path fill="#000" d="M31.8915993,3.73357637 C31.8895944,3.73357637 31.8875896,3.73333333 31.8855847,3.73333333 L23.1603543,3.73333333 L23.1603543,2.8 C23.1603543,1.25611111 21.8652029,0 20.2733295,0 L12.5745968,0 C10.9827234,0 9.687572,1.25611111 9.687572,2.8 L9.687572,3.73333333 L0.96234159,3.73333333 C0.426537893,3.73333333 0,4.15916667 0,4.66666667 L0,25.2 C0,26.7438889 1.29515139,28 2.88702477,28 L29.9609015,28 C31.5527749,28 32.8479263,26.7438889 32.8479263,25.2 L32.8479263,4.68635415 C32.8479263,4.68513889 32.8479263,4.68392363 32.8479263,4.6827083 C32.8110866,4.06972222 32.4223909,3.73697918 31.8915993,3.73357637 Z M11.6122552,2.8 C11.6122552,2.2854514 12.0440559,1.86666667 12.5745968,1.86666667 L20.2733295,1.86666667 C20.8038704,1.86666667 21.2356711,2.2854514 21.2356711,2.8 L21.2356711,3.73333333 L11.6122552,3.73333333 L11.6122552,2.8 Z M30.5503357,5.6 L27.561814,14.2950695 C27.4307451,14.6769097 27.0638523,14.9333333 26.6490931,14.9333333 L21.2356711,14.9333333 L21.2356711,14 C21.2356711,13.4844792 20.8048728,13.0666667 20.2733295,13.0666667 L12.5745968,13.0666667 C12.0430534,13.0666667 11.6122552,13.4844792 11.6122552,14 L11.6122552,14.9333333 L6.19883315,14.9333333 C5.78407393,14.9333333 5.4171812,14.6769097 5.28611226,14.2950695 L2.29759055,5.6 L30.5503357,5.6 Z M19.3109879,14.9333333 L19.3109879,16.8 L13.5369384,16.8 L13.5369384,14.9333333 L19.3109879,14.9333333 Z M30.9232431,25.2 C30.9232431,25.7145486 30.4914424,26.1333333 29.9609015,26.1333333 L2.88702477,26.1333333 C2.35648386,26.1333333 1.92468318,25.7145486 1.92468318,25.2 L1.92468318,10.4180903 L3.46016937,14.8854514 C3.85362671,16.0307292 4.9543049,16.8 6.19883315,16.8 L11.6122552,16.8 L11.6122552,17.7333333 C11.6122552,18.2488542 12.0430534,18.6666667 12.5745968,18.6666667 L20.2733295,18.6666667 C20.8048728,18.6666667 21.2356711,18.2488542 21.2356711,17.7333333 L21.2356711,16.8 L26.6490931,16.8 C27.8936214,16.8 28.9942996,16.0307292 29.3877569,14.8854514 L30.9232431,10.4180903 L30.9232431,25.2 Z"/>
  </g>
</svg>
