<svg xmlns="http://www.w3.org/2000/svg" width="70" height="70" viewBox="0 0 70 70">
  <g fill="none" fill-rule="evenodd" transform="matrix(-1 0 0 1 59 21)">
    <path fill="#FFF" d="M43.2,21.7557809 L47.2,21.7557809 L47.2,16.0872243 C47.2,12.1631687 44.0121094,8.98174442 40.0800781,8.98174442 L37.5089844,8.84998103 L33.29375,4.17627723 C31.4464844,2.1280965 28.8066406,0.970293459 26.0457031,0.997971602 L17.3023438,1.08568393 C15.5433594,1.10868408 13.8316406,1.65912779 12.3894531,2.66489604 C11.03125,3.54046014 10.0070312,4.84561998 9.4800781,6.37103514 L8.434375,8.98174442 L6.0496094,8.98174442 C3.1503906,8.98174442 0.8,11.3273675 0.8,14.2207055 L0.8,21.7557809 L43.2,21.7557809 Z"/>
    <path fill="#CCC" d="M31.1128906 8.98174442L24 8.98174442 24 4.19148073 25.6 4.19148073C28.428125 4.19148073 30.03125 5.39879244 31.8398438 7.48634635 32.0722656 7.76117835 32.1207031 8.14672282 31.9632812 8.46989417 31.80625 8.79345522 31.4726562 8.99382926 31.1128906 8.98174442L31.1128906 8.98174442zM19.2 8.98174442L12 8.98174442 12 8.28004564C12 7.19553114 12.4316406 6.15584751 13.2 5.38904665 13.9683594 4.62224579 15.0101562 4.19148073 16.096875 4.19148073L19.2 4.19148073 19.2 8.98174442z"/>
    <path fill="#FF7100" d="M40.8,9.01760903 L40.8,9.87991886 C40.8,12.0294561 42.5460938,13.7720081 44.7,13.7720081 L46.8128906,13.7720081 C45.9257812,11.1410275 43.5695312,9.27762743 40.8,9.01760903 Z"/>
    <polygon fill="#FF7100" points=".8 13.772 4.8 13.772 4.8 16.966 .8 16.966"/>
    <path fill="#CCC" d="M17.6 22.5541582C17.6 25.6408532 15.0929688 28.1427992 12 28.1427992 8.9070312 28.1427992 6.4 25.6408532 6.4 22.5541582 6.4 19.4674632 8.9070312 16.9655172 12 16.9655172 15.0929688 16.9655172 17.6 19.4674632 17.6 22.5541582zM43.2 22.5541582C43.2 25.6408532 40.6929688 28.1427992 37.6 28.1427992 34.5070312 28.1427992 32 25.6408532 32 22.5541582 32 19.4674632 34.5070312 16.9655172 37.6 16.9655172 40.6929688 16.9655172 43.2 19.4674632 43.2 22.5541582z"/>
    <path fill="#000" fill-rule="nonzero" d="M16.85 22.5541582C16.85 19.882018 14.6790958 17.7155172 12 17.7155172 9.32090425 17.7155172 7.15 19.882018 7.15 22.5541582 7.15 25.2262984 9.32090425 27.3927992 12 27.3927992 14.6790958 27.3927992 16.85 25.2262984 16.85 22.5541582zM18.35 22.5541582C18.35 26.0554081 15.5068418 28.8927992 12 28.8927992 8.49315815 28.8927992 5.65 26.0554081 5.65 22.5541582 5.65 19.0529083 8.49315815 16.2155172 12 16.2155172 15.5068418 16.2155172 18.35 19.0529083 18.35 22.5541582zM42.45 22.5541582C42.45 19.882018 40.2790958 17.7155172 37.6 17.7155172 34.9209042 17.7155172 32.75 19.882018 32.75 22.5541582 32.75 25.2262984 34.9209042 27.3927992 37.6 27.3927992 40.2790958 27.3927992 42.45 25.2262984 42.45 22.5541582zM43.95 22.5541582C43.95 26.0554081 41.1068418 28.8927992 37.6 28.8927992 34.0931582 28.8927992 31.25 26.0554081 31.25 22.5541582 31.25 19.0529083 34.0931582 16.2155172 37.6 16.2155172 41.1068418 16.2155172 43.95 19.0529083 43.95 22.5541582z"/>
    <path fill="#FFF" d="M14.4 22.5541582C14.4 23.8768604 13.3253906 24.9492901 12 24.9492901 10.6746094 24.9492901 9.6 23.8768604 9.6 22.5541582 9.6 21.231456 10.6746094 20.1590264 12 20.1590264 13.3253906 20.1590264 14.4 21.231456 14.4 22.5541582zM40 22.5541582C40 23.8768604 38.9253906 24.9492901 37.6 24.9492901 36.2746094 24.9492901 35.2 23.8768604 35.2 22.5541582 35.2 21.231456 36.2746094 20.1590264 37.6 20.1590264 38.9253906 20.1590264 40 21.231456 40 22.5541582z"/>
    <path fill="#000" fill-rule="nonzero" d="M40.1222656,8.18336714 L37.8824219,8.06836648 L33.8878906,3.64298616 C31.9710938,1.51995756 29.2628906,0.278340467 26.4,0.210119827 L16,0.387883519 C14.5414062,0.614376268 13.1527344,1.16754883 11.9390625,2.00646871 C10.45,2.97247399 9.3246094,4.40471922 8.7390625,6.07788098 L7.8929688,8.18336714 L6.0527344,8.18336714 C2.9460938,8.18726542 0.3457031,10.5363971 0.0335938,13.6211429 C0.0175781,13.6702618 0.00625,13.7205502 0,13.7720081 L0,21.7557809 C0,22.1966817 0.3582031,22.5541582 0.8,22.5541582 L5.6,22.5541582 C5.6011719,24.3898802 6.3960938,26.1359407 7.7808594,27.3444219 L41.8191406,27.3444219 C43.2039062,26.1359407 43.9988281,24.3898802 44,22.5541582 L47.2,22.5541582 C47.6417969,22.5541582 48,22.1966817 48,21.7557809 L48,16.0872243 C48,11.738641 44.4800781,8.2067571 40.1222656,8.18336714 Z M45.56875,12.9736308 L44.7,12.9736308 C43.0277344,12.9701224 41.6601562,11.643132 41.6097656,9.97503803 C43.2835938,10.394498 44.7132812,11.477453 45.56875,12.9736308 Z M24.8,0.19959432 L17.6,0.19959432 L24.8,0.19959432 Z M4,14.5703854 L4,16.16714 L1.6,16.16714 L1.6,14.5703854 L4,14.5703854 Z M7.2,22.5541582 C7.2,19.9087539 9.3492188,17.7638945 12,17.7638945 C14.6507812,17.7638945 16.8,19.9087539 16.8,22.5541582 C16.8,25.1995626 14.6507812,27.3444219 12,27.3444219 C9.35,27.3416931 7.2027344,25.198783 7.2,22.5541582 Z M16.2191406,27.3444219 C17.6039062,26.1359407 18.3988281,24.3898802 18.4,22.5541582 L31.2,22.5541582 C31.2011719,24.3898802 31.9960938,26.1359407 33.3808594,27.3444219 L16.2191406,27.3444219 Z M37.6,27.3444219 C34.9492188,27.3444219 32.8,25.1995626 32.8,22.5541582 C32.8,19.9087539 34.9492188,17.7638945 37.6,17.7638945 C40.2507812,17.7638945 42.4,19.9087539 42.4,22.5541582 C42.3972656,25.198783 40.25,27.3416931 37.6,27.3444219 Z M46.4,20.9574037 L43.7894531,20.9574037 C43.0640625,18.1377441 40.5171875,16.1659704 37.6,16.1659704 C34.6828125,16.1659704 32.1359375,18.1377441 31.4105469,20.9574037 L18.1894531,20.9574037 C17.4640625,18.1377441 14.9171875,16.1659704 12,16.1659704 C9.0828125,16.1659704 6.5359375,18.1377441 5.8105469,20.9574037 L1.6,20.9574037 L1.6,17.7638945 L4.8,17.7638945 C5.2417969,17.7638945 5.6,17.406418 5.6,16.9655172 L5.6,13.7720081 C5.6,13.3311074 5.2417969,12.9736308 4.8,12.9736308 L1.7816406,12.9736308 C2.3382812,11.0833323 4.075,9.78363017 6.0496094,9.7801217 L8.4335938,9.7801217 C8.7609375,9.7801217 9.0554688,9.581307 9.1769531,9.27801724 L10.2335938,6.64313829 C10.7042969,5.27716466 11.6230469,4.10922601 12.840625,3.32839118 C14.153125,2.41384381 15.7101562,1.91329868 17.3105469,1.89146805 L26.0535156,1.79634888 L26.1433594,1.79634888 C28.6449219,1.79595908 31.0289062,2.85513438 32.703125,4.71034802 L36.9144531,9.38093306 C37.05625,9.53842546 37.2550781,9.63315482 37.4671875,9.64445994 L40,9.7801217 L40,9.88381714 C40.0054688,12.4715264 42.1070312,14.5672667 44.7,14.5703854 L46.2070312,14.5703854 C46.3332031,15.0662525 46.3980469,15.5757638 46.4,16.0872243 L46.4,20.9574037 Z"/>
    <path fill="#000" fill-rule="nonzero" d="M24 9.7801217L31.1128906 9.7801217C31.8 9.7898675 32.428125 9.3930179 32.7128906 8.76850593 32.9910156 8.16816364 32.8882812 7.46061734 32.4503906 6.9643604 30.5351562 4.75907708 28.7199219 3.39310345 25.6 3.39310345L24 3.39310345C23.5582031 3.39310345 23.2 3.75057997 23.2 4.19148073L23.2 8.98174442C23.2 9.42264518 23.5582031 9.7801217 24 9.7801217zM24.8 4.98985801L25.6 4.98985801C28.1375 4.98985801 29.5390625 6.05098246 31.2359375 8.0083323 31.2632812 8.03289178 31.2707031 8.07265467 31.2535156 8.1050108 31.228125 8.15880766 31.171875 8.19077399 31.1128906 8.18492647L24.8 8.18492647 24.8 4.98985801zM12 9.7801217L19.2 9.7801217C19.6417969 9.7801217 20 9.42264518 20 8.98174442L20 4.19148073C20 3.75057997 19.6417969 3.39310345 19.2 3.39310345L16.096875 3.39310345C13.3925781 3.39349326 11.2003906 5.58123413 11.2 8.28004564L11.2 8.98174442C11.2 9.42264518 11.5582031 9.7801217 12 9.7801217zM13.765625 5.95352434C14.3855469 5.33875827 15.2230469 4.99258687 16.096875 4.98985801L18.4 4.98985801 18.4 8.18336714 12.8 8.18336714C12.8226562 7.34366765 13.1683594 6.54529036 13.765625 5.95352434zM12 19.3606491C10.2328125 19.3606491 8.8 20.7905553 8.8 22.5541582 8.8 24.3177612 10.2328125 25.7476673 12 25.7476673 13.7671875 25.7476673 15.2 24.3177612 15.2 22.5541582 15.2 20.7905553 13.7671875 19.3606491 12 19.3606491zM12 24.1509128C11.1164062 24.1509128 10.4 23.4359597 10.4 22.5541582 10.4 21.6723567 11.1164062 20.9574037 12 20.9574037 12.8835938 20.9574037 13.6 21.6723567 13.6 22.5541582 13.6 23.4359597 12.8835938 24.1509128 12 24.1509128zM37.6 19.3606491C35.8328125 19.3606491 34.4 20.7905553 34.4 22.5541582 34.4 24.3177612 35.8328125 25.7476673 37.6 25.7476673 39.3671875 25.7476673 40.8 24.3177612 40.8 22.5541582 40.8 20.7905553 39.3671875 19.3606491 37.6 19.3606491zM37.6 24.1509128C36.7164062 24.1509128 36 23.4359597 36 22.5541582 36 21.6723567 36.7164062 20.9574037 37.6 20.9574037 38.4835938 20.9574037 39.2 21.6723567 39.2 22.5541582 39.2 23.4359597 38.4835938 24.1509128 37.6 24.1509128z"/>
  </g>
</svg>
