<svg xmlns="http://www.w3.org/2000/svg" width="70" height="70" viewBox="0 0 70 70">
  <g fill="none" transform="translate(18 20)">
    <path fill="#FFF" d="M1.9375,2.00431034 L32.831543,1.67723882 L32.831543,23.25 C30.762703,24.2167782 29.6199103,24.7042387 29.4031649,24.7123813 C17.9335537,25.143267 12.9904528,24.1927027 9.6875,24.7123813 C6.85987407,25.1572731 6.63138638,26.153535 5.47210125,26.7688419 C4.1943283,27.4470379 2.12556957,27.7793265 1.9375,29.0625 L1.9375,2.00431034 Z"/>
    <rect width="4.844" height="4.844" x="7.75" y="7.75" fill="#FF7100"/>
    <rect width="6.781" height="4.844" x="6.781" y="13.563" fill="#FF7100"/>
    <path fill="#000" d="M13.0656195 12.6428138C13.6951533 11.9835837 14.0817604 11.0986076 14.0817604 10.1262038 14.0817604 8.09396892 12.3959084 6.44041288 10.3239813 6.44041288 8.25205425 6.44041288 6.5662022 8.09396892 6.5662022 10.1262038 6.5662022 11.0986076 6.95280935 11.9835837 7.58234308 12.6428138 6.30890753 13.5016922 5.47210125 14.9399414 5.47210125 16.5666167L5.47210125 18.1768504C5.47210125 18.7303845 5.92948435 19.1790056 6.49382976 19.1790056L14.1543989 19.1790056C14.7187443 19.1790056 15.1761274 18.7303845 15.1761274 18.1768504L15.1761274 16.5666167C15.1761274 14.9399414 14.3390551 13.5016922 13.0656195 12.6428138zM8.60965923 10.1262038C8.60965923 9.19921031 9.37888239 8.44472323 10.3239813 8.44472323 11.2693462 8.44472323 12.0383034 9.19921031 12.0383034 10.1262038 12.0383034 11.0534583 11.2693462 11.8076845 10.3239813 11.8076845 9.37888239 11.8076845 8.60965923 11.0534583 8.60965923 10.1262038zM13.1326704 17.1746952L7.51555828 17.1746952 7.51555828 16.5666167C7.51555828 15.0477253 8.77542399 13.8119949 10.3239813 13.8119949 11.8728047 13.8119949 13.1326704 15.0477253 13.1326704 16.5666167L13.1326704 17.1746952zM28.3814364 7.51407597L18.531867 7.51407597C17.9675217 7.51407597 17.5101385 7.96269701 17.5101385 8.51623114 17.5101385 9.06950431 17.9675217 9.51838631 18.531867 9.51838631L28.3814364 9.51838631C28.9455156 9.51838631 29.4031649 9.06950431 29.4031649 8.51623114 29.4031649 7.96269701 28.9455156 7.51407597 28.3814364 7.51407597zM28.3814364 11.8076845L18.531867 11.8076845C17.9675217 11.8076845 17.5101385 12.2563056 17.5101385 12.8098397 17.5101385 13.3631129 17.9675217 13.8119949 18.531867 13.8119949L28.3814364 13.8119949C28.9455156 13.8119949 29.4031649 13.3631129 29.4031649 12.8098397 29.4031649 12.2563056 28.9455156 11.8076845 28.3814364 11.8076845zM22.9093351 16.1012931L18.531867 16.1012931C17.9675217 16.1012931 17.5101385 16.5499141 17.5101385 17.1034483 17.5101385 17.6569824 17.9675217 18.1056034 18.531867 18.1056034L22.9093351 18.1056034C23.4736805 18.1056034 23.9310636 17.6569824 23.9310636 17.1034483 23.9310636 16.5499141 23.4736805 16.1012931 22.9093351 16.1012931z"/>
    <path fill="#000" d="M28.9284868,1.89886421e-15 L5.94651316,1.89886421e-15 C2.70704845,1.89886421e-15 0,2.57298123 0,5.83259528 L0,29.9845349 C0,30.822535 1.00177286,31.3056051 1.67574116,30.7544198 L7.95804117,25.6196794 L28.9284868,25.6196794 C32.1671534,25.6196794 34.875,23.0480031 34.875,19.7870841 L34.875,5.83259528 C34.875,2.57454706 32.1698141,0 28.9284868,1.89886421e-15 Z M32.831543,19.7870841 C32.831543,21.9195347 31.0602808,23.6153691 28.9284868,23.6153691 L7.58793071,23.6153691 C7.34899521,23.6153691 7.11750988,23.6973161 6.933918,23.8476394 L2.04345703,27.8447771 L2.04345703,5.83259528 C2.04345703,3.70066676 3.81418707,2.00431034 5.94651316,2.00431034 L28.9284868,2.00431034 C31.05762,2.00431034 32.831543,3.69675207 32.831543,5.83259528 L32.831543,19.7870841 Z"/>
  </g>
</svg>
