<svg xmlns="http://www.w3.org/2000/svg" width="70" height="70" viewBox="0 0 70 70">
  <g fill="none" transform="translate(16 19)">
    <rect width="18.073" height="24.604" x="10.463" y="1.893" fill="#FFF"/>
    <path fill="#FF7100" d="M18.0731707,25.5507353 L20.9268293,25.5507353 C21.9596117,26.4769815 22.5937581,27.2329771 22.8292683,27.8187222 C23.0647785,28.4044673 23.0647785,29.2256776 22.8292683,30.2823529 L16.1707317,30.2823529 C15.9374147,29.2854373 15.9374147,28.4968344 16.1707317,27.9165441 C16.4040487,27.3362538 17.0381951,26.5476509 18.0731707,25.5507353 Z"/>
    <polygon fill="#FF7100" points="16.171 17.98 22.829 17.98 19.976 22.712"/>
    <path fill="#CCC" d="M9.51219512,4.73161765 L9.51219512,16.7740881 C6.69533248,17.8737416 4.79289346,18.2757612 3.80487805,17.9801471 C2.81686264,17.6845329 1.86564313,16.4286986 0.951219512,14.2126444 L9.51219512,4.73161765 Z"/>
    <path fill="#CCC" d="M38.0487805,4.73161765 L38.0487805,16.7740881 C35.2319178,17.8737416 33.3294788,18.2757612 32.3414634,17.9801471 C31.353448,17.6845329 30.4022285,16.4286986 29.4878049,14.2126444 L38.0487805,4.73161765 Z" transform="matrix(-1 0 0 1 67.537 0)"/>
    <path fill="#363636" d="M38.7348862,12.8513735 L29.6320496,1.79965647 C29.5198746,1.64292872 29.3972855,1.49464017 29.2654724,1.35539356 C29.2279816,1.31078643 29.1875153,1.27039893 29.1452637,1.2330254 C28.3889007,0.494295189 27.3617707,0.0385791367 26.2310944,0.0385791367 L12.7692032,0.0385791367 C11.6364441,0.0385791367 10.6078263,0.495500787 9.8514633,1.23634081 C9.81337736,1.27009755 9.77707674,1.30656688 9.74315641,1.34635161 C9.60747526,1.48891356 9.48161312,1.64081891 9.36676025,1.80146482 L0.26511385,12.8513735 C0.0937271309,13.0593392 0,13.3218581 0,13.5928163 C0,16.6233883 2.43392944,19.0888363 5.42605591,19.0888363 C6.5960083,19.0888363 7.6796722,18.7105799 8.56665804,18.0704074 L8.56665804,22.2704094 C8.56665804,25.4109923 10.9160843,28.0051378 13.9278488,28.3472263 C14.8535156,30.5971736 17.0351257,32.1053767 19.5,32.1053767 C21.9648743,32.1053767 24.1467819,30.5971736 25.0718537,28.3469249 C28.0839157,28.0051378 30.4330444,25.4109923 30.4330444,22.2704094 L30.4330444,18.0701059 C31.3203278,18.7105799 32.4039917,19.0888363 33.5739441,19.0888363 C36.565773,19.0888363 39,16.6233883 39,13.5928163 C39,13.3218581 38.9062729,13.0593392 38.7348862,12.8513735 Z M5.42605591,16.7740881 C3.82466129,16.7740881 2.49938965,15.5543243 2.30866243,13.9837315 L8.56665809,6.38575134 L8.56665804,13.5928163 C8.56695557,15.3469614 7.15777588,16.7740881 5.42605591,16.7740881 Z M19.5,29.7906285 C18.2232284,29.7906285 17.0687485,29.1402084 16.3861771,28.1145459 C17.6516418,27.7179041 18.7403641,26.9107563 19.5,25.846816 C20.2596359,26.9107563 21.3483582,27.7179041 22.6138229,28.1145459 C21.9315491,29.1402084 20.7770691,29.7906285 19.5,29.7906285 Z M19.6449051,20.8707102 C19.5895614,20.9680622 19.5383835,21.0325617 19.5,21.072045 C19.4616165,21.0325617 19.4107361,20.9680622 19.3553924,20.8707102 L18.1309891,18.7232387 C18.0756454,18.6258867 18.0461883,18.5490298 18.031311,18.4953806 C18.0842743,18.4818177 18.1649093,18.4691589 18.2758942,18.4691589 L20.7241058,18.4691589 C20.8350907,18.4691589 20.9157257,18.4818177 20.968689,18.4953806 C20.9541092,18.5490298 20.9246521,18.6258867 20.8690109,18.7232387 L19.6449051,20.8707102 Z M28.1478882,22.2704094 C28.1478882,24.3663416 26.4646683,26.0716601 24.3952332,26.0716601 C22.5858536,26.0716601 21.07164,24.7678058 20.7196427,23.0389782 C21.0686646,22.8008725 21.3778153,22.4596884 21.6238861,22.0280843 L22.8482895,19.8803114 C23.355011,18.9908814 23.4041061,18.0568444 22.9824829,17.3175114 C22.5611572,16.5784798 21.7381439,16.1544107 20.7241058,16.1544107 L18.2758942,16.1544107 C17.2618561,16.1544107 16.4388428,16.5784798 16.0175171,17.3175114 C15.5958939,18.0568444 15.644989,18.9908814 16.1520081,19.8806128 L17.3761139,22.0280843 C17.6221847,22.4596884 17.9313354,22.8008725 18.2803573,23.0389782 C17.92836,24.7678058 16.4141464,26.0719614 14.6047668,26.0719614 C12.5353317,26.0719614 10.8518143,24.366643 10.8518143,22.2704094 L10.8518143,4.29524437 C10.8518143,3.89920538 10.9699402,3.53059377 11.1713791,3.22316635 L11.4385758,2.8988604 C11.7837296,2.56159442 12.2526627,2.35332734 12.7689056,2.35332734 L26.2310944,2.35332734 C26.7485275,2.35332734 27.2183533,2.56249863 27.5638046,2.90187444 L27.8250504,3.2192481 C28.0285721,3.52788119 28.1475907,3.89860262 28.1478882,4.29765557 L28.1478882,4.29946393 L28.1478882,22.2704094 Z M33.5739441,16.7740881 C31.8422241,16.7740881 30.433342,15.3469614 30.433342,13.5928163 L30.433342,6.38544988 L36.6913376,13.9837315 C36.5006104,15.5543243 35.1753387,16.7740881 33.5739441,16.7740881 Z"/>
    <path fill="#363636" d="M14.7439024 9.46323529C14.368245 9.46323529 14.0011337 9.61442524 13.7354611 9.87946983 13.4690453 10.1434053 13.3170732 10.5086271 13.3170732 10.8827206 13.3170732 11.2564445 13.4690453 11.6224055 13.7354611 11.8867107 14.0011337 12.1506463 14.368245 12.3022059 14.7439024 12.3022059 15.1195599 12.3022059 15.4877858 12.1506463 15.7530869 11.8867107 16.0183879 11.6224055 16.1707317 11.2564445 16.1707317 10.8827206 16.1707317 10.5086271 16.0183879 10.1434053 15.7530869 9.87946983 15.4877858 9.61442524 15.1195599 9.46323529 14.7439024 9.46323529zM24.2560976 9.46323529C23.8804401 9.46323529 23.5122142 9.61442524 23.2469131 9.87946983 22.9816121 10.1434053 22.8292683 10.5086271 22.8292683 10.8827206 22.8292683 11.2564445 22.9816121 11.6224055 23.2469131 11.8867107 23.5122142 12.1506463 23.8804401 12.3022059 24.2560976 12.3022059 24.631755 12.3022059 24.9988663 12.1506463 25.2645389 11.8867107 25.5309547 11.6224055 25.6829268 11.2564445 25.6829268 10.8827206 25.6829268 10.5086271 25.5309547 10.1434053 25.2645389 9.87946983 24.9988663 9.61442524 24.631755 9.46323529 24.2560976 9.46323529z"/>
  </g>
</svg>
