<svg xmlns="http://www.w3.org/2000/svg" width="70" height="70" viewBox="0 0 70 70">
  <g fill="none" transform="translate(17 17)">
    <rect width="7" height="13" x="12" y="22" fill="#CCC"/>
    <rect width="28" height="8" x="2" y="2" fill="#FFF"/>
    <path fill="#FF7100" d="M29,2 C27.6897048,4.4302772 26.3678906,5.76361053 25.0345572,6 C23.7012239,6.23638947 22.3678906,5.90305614 21.0345572,5 C19.6781857,3.97547931 18.6781857,3.64214598 18.0345572,4 C17.0691145,4.53678103 15.0345572,7 12.0345572,7 C10.0345572,7 8.36789057,6.33333333 7.03455724,5 C4.9760241,3 4.29783836,1.66666667 5,1 C6.33333333,1 13.3333333,1 26,1 L29,2 Z"/>
    <path fill="#000" d="M31.8091734,5.01031491 C31.6736907,2.22418209 29.3996905,0 26.6235119,0 L5.22670891,0 C2.36372401,0 0.0345572354,2.36563109 0.0345572354,5.2734375 L0.0345572354,6.85656738 C0.0345572354,9.7643738 2.36372401,12.1300049 5.22670891,12.1300049 L26.6237823,12.1300049 C29.3996905,12.1300049 31.6736907,9.90554808 31.8091734,7.11968991 L32.9192662,7.11968991 C33.491755,7.11968991 33.9576966,7.59265137 33.9576966,8.17437741 L33.9576966,13.9647217 C33.9576966,14.5107422 33.5377272,14.9724426 33.0017457,15.0161133 L15.8427661,16.2430115 C15.3029987,16.2869568 14.8868152,16.7445373 14.8868152,17.2944031 L14.8868152,19.9797363 L12.8296956,19.9797363 C12.2561251,19.9797363 11.7912653,20.4518738 11.7912653,21.0344238 L11.7912653,32.8010254 C11.7912653,35.1163941 13.6458369,37 15.9252456,37 C18.2049247,37 20.0594964,35.1163941 20.0594964,32.8010254 L20.0594964,21.0344238 C20.0594964,20.4518738 19.5943661,19.9797363 19.021066,19.9797363 L16.9636759,19.9797363 L16.9636759,18.268341 L33.1669751,17.1186218 C34.7749196,16.9884338 36.0345572,15.6030578 36.0345572,13.9647217 L36.0345572,8.17437741 C36.0345572,6.4297485 34.6370031,5.01031491 32.9192662,5.01031491 L31.8091734,5.01031491 Z M26.6235119,10.0206299 L5.22670891,10.0206299 C3.50897207,10.0206299 2.11141791,8.60119629 2.11141791,6.85656738 L2.11141791,5.2734375 C2.11141791,3.52880859 3.50897207,2.109375 5.22670891,2.109375 L26.6237823,2.109375 C28.3415192,2.109375 29.7390733,3.52880859 29.7390733,5.2734375 L29.7390733,6.85656738 C29.7388029,8.60119629 28.3415192,10.0206299 26.6235119,10.0206299 Z M17.9823653,32.8010254 C17.9823653,33.9532166 17.0596767,34.890625 15.9252456,34.890625 C14.7908146,34.890625 13.8678555,33.9532166 13.8678555,32.8010254 L13.8678555,22.0891113 L17.9823653,22.0891113 L17.9823653,32.8010254 Z"/>
  </g>
</svg>
